<svg width="100" height="100" viewBox="0 0 100 100" fill="none" xmlns="http://www.w3.org/2000/svg">
<circle cx="50" cy="50" r="49" stroke="black" stroke-width="2"/>
<path d="M39.5 26H60.5C68.5 26 75 32.5 75 40.5V61.5C75 65.3456 73.4723 69.0338 70.753 71.753C68.0338 74.4723 64.3456 76 60.5 76H39.5C31.5 76 25 69.5 25 61.5V40.5C25 36.6544 26.5277 32.9662 29.247 30.247C31.9662 27.5277 35.6544 26 39.5 26ZM39 31C36.6131 31 34.3239 31.9482 32.636 33.636C30.9482 35.3239 30 37.6131 30 40V62C30 66.975 34.025 71 39 71H61C63.3869 71 65.6761 70.0518 67.364 68.364C69.0518 66.6761 70 64.3869 70 62V40C70 35.025 65.975 31 61 31H39ZM63.125 34.75C63.9538 34.75 64.7487 35.0792 65.3347 35.6653C65.9208 36.2513 66.25 37.0462 66.25 37.875C66.25 38.7038 65.9208 39.4987 65.3347 40.0847C64.7487 40.6708 63.9538 41 63.125 41C62.2962 41 61.5013 40.6708 60.9153 40.0847C60.3292 39.4987 60 38.7038 60 37.875C60 37.0462 60.3292 36.2513 60.9153 35.6653C61.5013 35.0792 62.2962 34.75 63.125 34.75ZM50 38.5C53.3152 38.5 56.4946 39.817 58.8388 42.1612C61.183 44.5054 62.5 47.6848 62.5 51C62.5 54.3152 61.183 57.4946 58.8388 59.8388C56.4946 62.183 53.3152 63.5 50 63.5C46.6848 63.5 43.5054 62.183 41.1612 59.8388C38.817 57.4946 37.5 54.3152 37.5 51C37.5 47.6848 38.817 44.5054 41.1612 42.1612C43.5054 39.817 46.6848 38.5 50 38.5ZM50 43.5C48.0109 43.5 46.1032 44.2902 44.6967 45.6967C43.2902 47.1032 42.5 49.0109 42.5 51C42.5 52.9891 43.2902 54.8968 44.6967 56.3033C46.1032 57.7098 48.0109 58.5 50 58.5C51.9891 58.5 53.8968 57.7098 55.3033 56.3033C56.7098 54.8968 57.5 52.9891 57.5 51C57.5 49.0109 56.7098 47.1032 55.3033 45.6967C53.8968 44.2902 51.9891 43.5 50 43.5Z" fill="black"/>
</svg>
