<svg width="100" height="100" viewBox="0 0 100 100" fill="none" xmlns="http://www.w3.org/2000/svg">
<circle cx="50" cy="50" r="49" stroke="black" stroke-width="2"/>
<path fill-rule="evenodd" clip-rule="evenodd" d="M50.5 28.5C52.7444 28.5 55.0465 28.5578 57.2777 28.6523L59.9133 28.7782L62.4359 28.9279L64.7984 29.088L66.9561 29.256C69.2981 29.4342 71.5021 30.4331 73.1799 32.0768C74.8577 33.7205 75.9016 35.9035 76.1279 38.2414L76.2329 39.357L76.4298 41.7457C76.6135 44.2211 76.75 46.9196 76.75 49.5C76.75 52.0804 76.6135 54.7789 76.4298 57.2543L76.2329 59.643L76.1279 60.7586C75.9015 63.0969 74.8572 65.2802 73.1789 66.924C71.5006 68.5677 69.296 69.5664 66.9535 69.744L64.801 69.9094L62.4385 70.0721L59.9133 70.2217L57.2777 70.3477C55.0198 70.4456 52.7601 70.4963 50.5 70.5C48.2399 70.4963 45.9802 70.4456 43.7223 70.3477L41.0867 70.2217L38.5641 70.0721L36.2016 69.9094L34.0439 69.744C31.7019 69.5658 29.4979 68.5669 27.8201 66.9232C26.1423 65.2795 25.0984 63.0965 24.8721 60.7586L24.7671 59.643L24.5702 57.2543C24.3703 54.6742 24.2635 52.0878 24.25 49.5C24.25 46.9196 24.3865 44.2211 24.5702 41.7457L24.7671 39.357L24.8721 38.2414C25.0983 35.904 26.1419 33.7213 27.8191 32.0776C29.4964 30.434 31.6997 29.4348 34.0413 29.256L36.1964 29.088L38.5589 28.9279L41.0841 28.7782L43.7196 28.6523C45.9784 28.5544 48.2391 28.5036 50.5 28.5ZM45.25 43.1344V55.8656C45.25 57.0784 46.5625 57.8344 47.6125 57.2306L58.6375 50.865C58.8774 50.7269 59.0767 50.528 59.2152 50.2884C59.3538 50.0487 59.4268 49.7768 59.4268 49.5C59.4268 49.2232 59.3538 48.9513 59.2152 48.7116C59.0767 48.472 58.8774 48.2731 58.6375 48.135L47.6125 41.772C47.373 41.6337 47.1013 41.5609 46.8247 41.561C46.5482 41.561 46.2765 41.6339 46.0371 41.7723C45.7976 41.9106 45.5988 42.1096 45.4606 42.3491C45.3225 42.5887 45.2498 42.8604 45.25 43.137V43.1344Z" fill="black"/>
</svg>
