<svg width="115" height="208" viewBox="0 0 115 208" fill="none" xmlns="http://www.w3.org/2000/svg">
<g clip-path="url(#clip0_50_157)">
<path d="M226.073 113.852L84.3202 3.25648C80.066 -0.0622251 74.3662 -1.01635 71.5782 1.16155L2.3334 55.0905C-1.40454 57.9944 -0.578472 63.657 4.254 67.7224L166.865 204.225C172.482 208.933 179.276 209.265 181.961 204.972L231.298 126.36C233.28 123.228 230.905 117.648 226.073 113.852Z" fill="url(#paint0_linear_50_157)"/>
<path d="M103.939 66.457C100.243 70.1076 101.234 74.4426 102.618 77.3465C99.2513 76.4131 94.2743 75.9983 90.4124 79.8148C85.7245 84.4402 85.6006 93.6911 96.7318 102.818C101.151 106.447 105.261 108.708 110.424 110.347C115.442 111.944 122.712 112.629 131.963 112.4C135.536 112.317 138.655 112.089 140.616 111.923C144.396 111.612 144.478 111.55 144.685 111.301C144.705 111.28 144.705 111.28 144.705 111.26C144.891 111.031 144.912 110.782 144.52 107.277C144.313 105.39 143.921 102.444 143.342 99.1255C141.856 90.7873 139.894 84.5232 137.477 80.3956C135.041 76.2472 132.232 73.0529 128.06 69.755C117.59 61.4582 108.276 62.1842 103.939 66.457Z" fill="#E52A59"/>
<path d="M30.8943 72.2233C29.7585 73.1982 29.903 74.3597 30.2128 75.1065C29.3041 74.8576 27.9411 74.7538 26.7846 75.7495C25.401 76.9317 25.1532 79.2756 27.9205 81.5779C29.015 82.4906 30.0476 83.0714 31.3899 83.4862C32.691 83.901 34.6529 84.1085 37.193 84.1085C38.1843 84.1085 39.0517 84.067 39.6093 84.0462C40.6832 83.984 40.7038 83.9633 40.7658 83.9218C40.8277 83.8595 40.8484 83.7973 40.869 82.9262C40.8897 82.4491 40.8897 81.7024 40.869 80.852C40.7864 78.6948 40.4766 77.0562 39.9604 75.9569C39.4234 74.8368 38.7419 73.9864 37.668 73.0945C34.942 70.8336 32.2367 71.0618 30.8943 72.2233Z" fill="#E52A59"/>
<path d="M18.9372 72.742C18.8959 72.7835 18.834 72.8249 18.772 72.8872C18.7101 72.9494 18.6687 72.9909 18.6481 72.9909C18.5655 73.0738 18.4622 73.0946 18.359 73.0738C18.2557 73.0531 18.1318 72.9701 17.9459 72.8249L16.9753 72.016C16.8101 71.8708 16.7275 71.7878 16.7275 71.7256C16.7275 71.6634 16.8101 71.5804 16.9547 71.456L17.347 71.1241C17.471 71.0204 17.5536 70.9374 17.6155 70.8545C17.6775 70.7715 17.7188 70.7093 17.7601 70.6678C17.7807 70.6056 17.8014 70.5433 17.7601 70.4604C17.7394 70.3774 17.7188 70.3152 17.6981 70.2737C17.6775 70.2322 17.6155 70.1492 17.5329 70.0248C17.4503 69.9003 17.3883 69.7966 17.347 69.7344L10.8831 59.239C10.7385 59.0108 10.6766 58.8656 10.6972 58.7619C10.7179 58.6789 10.8624 58.5338 11.1103 58.3263L12.0809 57.5589C12.1841 57.4759 12.2668 57.4137 12.3494 57.3722C12.432 57.3307 12.5146 57.2892 12.5559 57.2892C12.6178 57.2685 12.6798 57.2685 12.783 57.2892C12.8656 57.31 12.9483 57.3307 12.9896 57.3515C13.0309 57.3722 13.1135 57.4137 13.258 57.4759C13.3819 57.5381 13.4852 57.5796 13.5678 57.6211L25.6696 63.097C25.7109 63.1177 25.7729 63.1385 25.8762 63.1799C25.9588 63.2214 26.0207 63.2422 26.0414 63.2629C26.062 63.2629 26.1033 63.2837 26.1653 63.3044C26.2272 63.3251 26.2685 63.3459 26.2892 63.3459C26.3098 63.3459 26.3511 63.3459 26.4131 63.3666C26.4751 63.3874 26.4957 63.3666 26.537 63.3666C26.5577 63.3459 26.599 63.3459 26.6403 63.3251C26.6816 63.3044 26.7229 63.2837 26.7642 63.2629C26.8055 63.2214 26.8468 63.2007 26.9087 63.1592C26.95 63.1177 27.012 63.0762 27.0739 63.0347L27.8587 62.371C27.962 62.2673 28.0652 62.2466 28.1272 62.2466C28.1891 62.2673 28.313 62.3503 28.5196 62.5162L29.4695 63.3044C29.6347 63.4496 29.7174 63.5326 29.7174 63.5948C29.7174 63.657 29.6347 63.7607 29.4695 63.9059L24.761 67.8469C24.5958 67.9921 24.4718 68.0543 24.3892 68.0543C24.3066 68.0543 24.1827 67.9921 24.0382 67.8676L22.9849 66.9965C22.861 66.8927 22.7784 66.8098 22.7578 66.7476C22.7371 66.6853 22.7784 66.6438 22.8404 66.5816L23.4806 66.0631C23.749 65.8349 23.8316 65.6897 23.7284 65.6067C23.7077 65.586 23.5219 65.503 23.1501 65.3164L22.7371 65.1089C22.448 64.9637 22.2621 64.9015 22.1589 64.9223C22.0556 64.943 21.8904 65.0467 21.6632 65.2334L19.0611 67.3906C18.8546 67.5772 18.7101 67.7224 18.6687 67.8469C18.6274 67.9713 18.6274 68.075 18.6481 68.1373C18.6894 68.1995 18.7927 68.3862 18.9579 68.6558C19.1644 68.9877 19.2883 69.1536 19.3296 69.1951C19.4329 69.2781 19.6807 69.1744 20.0524 68.8632C20.0937 68.8217 20.135 68.7803 20.197 68.7388C20.2589 68.6766 20.2796 68.6558 20.3209 68.6351C20.4035 68.5521 20.5067 68.5314 20.61 68.5521C20.7133 68.5728 20.8578 68.6558 21.0437 68.8217L21.8904 69.527C22.0969 69.6929 22.2002 69.8174 22.2002 69.9003C22.2002 69.9626 22.0969 70.087 21.911 70.2529L18.9372 72.742ZM15.1993 62.6407L16.8721 65.2749C17.0373 65.5445 17.1612 65.7105 17.2231 65.7727C17.3057 65.8349 17.3883 65.8556 17.471 65.8142C17.5536 65.7727 17.6981 65.669 17.9253 65.4823L19.4948 64.1756C19.8046 63.9267 19.8872 63.74 19.7426 63.6155C19.7013 63.574 19.6394 63.5326 19.5568 63.5118C19.4742 63.4703 19.3709 63.4288 19.247 63.3666C19.1231 63.3044 18.9992 63.2629 18.9166 63.2007L15.7982 61.7073C15.571 61.6036 15.1373 61.3754 14.5178 61.0228C14.2906 60.8983 14.1667 60.8568 14.1254 60.8983C14.0841 60.9398 14.146 61.0435 14.3113 61.2509C14.4352 61.4376 14.7243 61.8939 15.1993 62.6407Z" fill="#E52A59"/>
</g>
<defs>
<linearGradient id="paint0_linear_50_157" x1="70.3958" y1="60.4429" x2="224.892" y2="180.237" gradientUnits="userSpaceOnUse">
<stop offset="0.134" stop-color="#EDEDED"/>
<stop offset="0.828" stop-color="#C3C3C3"/>
<stop offset="1" stop-color="#B8B8B8"/>
</linearGradient>
<clipPath id="clip0_50_157">
<rect width="232" height="208" fill="white"/>
</clipPath>
</defs>
</svg>
