<svg width="83" height="50" viewBox="0 0 83 50" fill="none" xmlns="http://www.w3.org/2000/svg">
<g clip-path="url(#clip0_50_170)">
<path d="M81.6785 40.916L81.1449 40.8401C80.8145 33.4767 66.4814 21.7358 46.7606 13.1579C46.7352 13.1326 46.6844 13.1326 46.6589 13.1073C26.9636 4.50403 8.64057 1.97367 2.99881 6.70545L2.56678 6.3512L0.838673 10.3492C0.787846 10.4251 0.762432 10.501 0.737019 10.5769L0.406646 11.336C-2.66837 18.3198 12.5034 31.6548 34.3081 41.169C34.3335 41.1943 34.3589 41.1943 34.4097 41.2196C56.2398 50.7844 76.4434 52.8593 79.5184 45.9008L79.8488 45.1417C79.8996 45.0658 79.925 44.9899 79.9758 44.8886L81.6785 40.916Z" fill="url(#paint0_linear_50_170)"/>
<path opacity="0.5" d="M2.9987 6.70547L2.56668 6.35122L0.838569 10.3492C0.254062 11.6144 -0.076312 14.0435 0.508195 15.7136L4.95553 5.5415C4.19313 5.84515 3.53238 6.25001 2.9987 6.70547Z" fill="url(#paint1_linear_50_170)"/>
<path opacity="0.3" d="M6.17538 5.11134L5.33674 4.73178L4.98096 5.5415C5.33674 5.36437 5.74336 5.23785 6.17538 5.11134Z" fill="url(#paint2_linear_50_170)"/>
<path opacity="0.3" d="M0.508301 15.7136C0.787848 16.498 1.19446 17.2824 1.70273 18.1174L7.21743 5.56679L6.17548 5.11133C5.74345 5.23785 5.33684 5.36436 4.98105 5.54149L0.508301 15.7136Z" fill="url(#paint3_linear_50_170)"/>
<path opacity="0.1" d="M7.21733 5.5668L1.70264 18.1174C2.10925 18.75 2.56669 19.4332 3.07496 20.0911L9.09792 6.37652L7.21733 5.5668Z" fill="url(#paint4_linear_50_170)"/>
<path opacity="0.1" d="M9.09767 6.37653L3.07471 20.1164C3.53215 20.6731 4.015 21.2551 4.57409 21.8624L11.0037 7.21155L9.09767 6.37653Z" fill="url(#paint5_linear_50_170)"/>
<path opacity="0.1" d="M11.0038 7.21155L4.57422 21.8624C5.05707 22.3937 5.56534 22.9251 6.12443 23.4565L12.9098 8.04657L11.0038 7.21155Z" fill="url(#paint6_linear_50_170)"/>
<path opacity="0.3" d="M12.8845 8.04657L6.12451 23.4565C6.63278 23.9626 7.16646 24.4433 7.72555 24.9494L14.7905 8.85629L12.8845 8.04657Z" fill="url(#paint7_linear_50_170)"/>
<path opacity="0.3" d="M14.7905 8.88159L7.7002 24.9494C8.20846 25.4302 8.76756 25.8856 9.32665 26.3664L16.6457 9.69131L14.7905 8.88159Z" fill="url(#paint8_linear_50_170)"/>
<path opacity="0.5" d="M16.6711 9.69128L9.35205 26.3664C9.88573 26.8218 10.4448 27.252 11.0039 27.7075L18.5517 10.5263L16.6711 9.69128Z" fill="url(#paint9_linear_50_170)"/>
<path opacity="0.5" d="M18.5517 10.5263L11.0039 27.7075C11.563 28.1376 12.1221 28.5678 12.7066 28.998L20.4577 11.3613L18.5517 10.5263Z" fill="url(#paint10_linear_50_170)"/>
<path opacity="0.5" d="M20.4576 11.3613L12.7065 28.998C13.2656 29.4028 13.8247 29.8077 14.4092 30.2125L22.3382 12.171L20.4576 11.3613Z" fill="url(#paint11_linear_50_170)"/>
<path opacity="0.5" d="M22.3381 12.1711L14.4092 30.2125C14.9683 30.6174 15.5528 30.997 16.1373 31.4018L24.2187 13.0061L22.3381 12.1711Z" fill="url(#paint12_linear_50_170)"/>
<path opacity="0.5" d="M24.244 13.0061L16.1626 31.4018C16.7471 31.7814 17.3316 32.1609 17.9161 32.5405L26.1246 13.8411L24.244 13.0061Z" fill="url(#paint13_linear_50_170)"/>
<path opacity="0.5" d="M26.125 13.8411L17.9165 32.5405C18.501 32.92 19.0855 33.2743 19.6954 33.6285L28.031 14.6761L26.125 13.8411Z" fill="url(#paint14_linear_50_170)"/>
<path opacity="0.5" d="M28.0055 14.6761L19.6699 33.6285C20.2544 33.9828 20.8389 34.337 21.4489 34.6913L29.8861 15.4858L28.0055 14.6761Z" fill="url(#paint15_linear_50_170)"/>
<path opacity="0.5" d="M29.9114 15.4858L21.4741 34.6913C22.0586 35.0456 22.6685 35.3745 23.2785 35.7035L31.8174 16.3209L29.9114 15.4858Z" fill="url(#paint16_linear_50_170)"/>
<path opacity="0.5" d="M31.7918 16.3209L23.2529 35.7035C23.8374 36.0324 24.4474 36.3613 25.0827 36.6903L33.6978 17.1306L31.7918 16.3209Z" fill="url(#paint17_linear_50_170)"/>
<path opacity="0.5" d="M33.6727 17.1559L25.0576 36.7156C25.6675 37.0445 26.2775 37.3482 26.8874 37.6771L35.5787 17.9656L33.6727 17.1559Z" fill="url(#paint18_linear_50_170)"/>
<path opacity="0.5" d="M35.5785 17.9656L26.9126 37.6518C27.5225 37.9555 28.1324 38.2844 28.7678 38.588L37.4846 18.8006L35.5785 17.9656Z" fill="url(#paint19_linear_50_170)"/>
<path opacity="0.5" d="M37.459 18.8006L28.7422 38.588C29.3521 38.8917 29.9874 39.1953 30.5974 39.499L39.3396 19.6356L37.459 18.8006Z" fill="url(#paint20_linear_50_170)"/>
<path opacity="0.5" d="M39.3652 19.6356L30.623 39.499C31.233 39.8026 31.8683 40.081 32.5036 40.3593L41.2712 20.4453L39.3652 19.6356Z" fill="url(#paint21_linear_50_170)"/>
<path opacity="0.5" d="M41.2456 20.4706L32.478 40.3846C33.0879 40.663 33.7233 40.9413 34.3586 41.2196L43.1262 21.3057L41.2456 20.4706Z" fill="url(#paint22_linear_50_170)"/>
<path opacity="0.5" d="M43.1265 21.2804L34.3589 41.1943C34.9942 41.4727 35.6296 41.751 36.2649 42.0041L45.0325 22.0901L43.1265 21.2804Z" fill="url(#paint23_linear_50_170)"/>
<path opacity="0.5" d="M45.0323 22.1154L36.2646 42.0294C36.9 42.3077 37.5353 42.5607 38.1706 42.8138L46.9128 22.9504L45.0323 22.1154Z" fill="url(#paint24_linear_50_170)"/>
<path opacity="0.5" d="M46.9131 22.9504L38.1709 42.8138C38.8062 43.0668 39.467 43.3198 40.1023 43.5729L48.8191 23.7854L46.9131 22.9504Z" fill="url(#paint25_linear_50_170)"/>
<path opacity="0.3" d="M48.8188 23.7601L40.1021 43.5476C40.7374 43.8006 41.3981 44.0283 42.0335 44.2814L50.6994 24.5952L48.8188 23.7601Z" fill="url(#paint26_linear_50_170)"/>
<path opacity="0.3" d="M50.6996 24.5952L42.0337 44.2814C42.6944 44.5091 43.3298 44.7622 43.9905 44.9646L52.6056 25.4049L50.6996 24.5952Z" fill="url(#paint27_linear_50_170)"/>
<path opacity="0.1" d="M52.58 25.4302L43.9648 44.9899C44.6256 45.2176 45.2863 45.4454 45.9217 45.6478L54.4606 26.2652L52.58 25.4302Z" fill="url(#paint28_linear_50_170)"/>
<path opacity="0.1" d="M54.4862 26.2652L45.9473 45.6478C46.608 45.8755 47.2688 46.078 47.9295 46.2804L56.3667 27.0749L54.4862 26.2652Z" fill="url(#paint29_linear_50_170)"/>
<path opacity="0.1" d="M56.3669 27.0749L47.9297 46.2804C48.5904 46.4828 49.2766 46.6852 49.9119 46.8876L58.2475 27.9352L56.3669 27.0749Z" fill="url(#paint30_linear_50_170)"/>
<path opacity="0.2" d="M58.2726 27.9099L49.937 46.8623C50.6232 47.0648 51.2839 47.2419 51.9447 47.419L60.1786 28.7196L58.2726 27.9099Z" fill="url(#paint31_linear_50_170)"/>
<path opacity="0.3" d="M60.1534 28.7449L51.9194 47.4443C52.6056 47.6215 53.2663 47.7986 53.9525 47.9504L62.0339 29.5547L60.1534 28.7449Z" fill="url(#paint32_linear_50_170)"/>
<path opacity="0.5" d="M62.0341 29.5547L53.9526 47.9504C54.6388 48.1275 55.325 48.2794 55.9857 48.4312L63.9147 30.3897L62.0341 29.5547Z" fill="url(#paint33_linear_50_170)"/>
<path opacity="0.5" d="M63.9397 30.3897L56.0107 48.4312C56.6969 48.583 57.4085 48.7348 58.0692 48.8613L65.8203 31.2247L63.9397 30.3897Z" fill="url(#paint34_linear_50_170)"/>
<path opacity="0.5" d="M65.8204 31.2247L58.0693 48.8613C58.7809 48.9879 59.4671 49.1144 60.1532 49.2409L67.701 32.0597L65.8204 31.2247Z" fill="url(#paint35_linear_50_170)"/>
<path opacity="0.5" d="M67.7265 32.0597L60.1787 49.2409C60.8903 49.3674 61.6019 49.4686 62.288 49.5445L69.6071 32.8694L67.7265 32.0597Z" fill="url(#paint36_linear_50_170)"/>
<path opacity="0.5" d="M69.6071 32.8694L62.2881 49.5445C63.0251 49.6458 63.7366 49.7217 64.4228 49.7976L71.4877 33.7045L69.6071 32.8694Z" fill="url(#paint37_linear_50_170)"/>
<path opacity="0.5" d="M71.4878 33.7045L64.4229 49.7976C65.1853 49.8735 65.8968 49.9241 66.6084 49.9494L73.3938 34.5395L71.4878 33.7045Z" fill="url(#paint38_linear_50_170)"/>
<path opacity="0.5" d="M73.3938 34.5395L66.6084 49.9494C67.3708 50 68.1332 50 68.8448 50L75.2744 35.3492L73.3938 34.5395Z" fill="url(#paint39_linear_50_170)"/>
<path opacity="0.2" d="M75.2743 35.3492L68.8447 50C69.658 50 70.4204 49.9747 71.1573 49.8988L77.1803 36.1842L75.2743 35.3492Z" fill="url(#paint40_linear_50_170)"/>
<path opacity="0.2" d="M77.1802 36.1842L71.1572 49.8988C72.0213 49.8229 72.8091 49.7217 73.5461 49.5698L79.0608 36.9939L77.1802 36.1842Z" fill="url(#paint41_linear_50_170)"/>
<path opacity="0.2" d="M80.9412 37.8543L80.0771 37.4747C80.2805 37.8796 80.4329 38.2591 80.5854 38.6387L80.9412 37.8543Z" fill="url(#paint42_linear_50_170)"/>
<path opacity="0.2" d="M73.5464 49.5698C74.5121 49.3927 75.3761 49.1397 76.1385 48.8107L80.5859 38.6387C80.4588 38.2591 80.2809 37.8542 80.0776 37.4747L79.0357 37.0192L73.5464 49.5698Z" fill="url(#paint43_linear_50_170)"/>
<path opacity="0.5" d="M79.4673 45.8755L81.6021 40.9666L81.0684 40.8907C81.043 40.1822 80.8651 39.4484 80.5855 38.664L76.1382 48.836C77.7646 48.1275 78.9082 47.166 79.4673 45.8755Z" fill="url(#paint44_linear_50_170)"/>
<path d="M82.4665 39.0435C82.2886 39.4484 82.2632 39.6508 82.1107 39.9545C82.0599 40.0557 81.7295 40.8654 81.6279 40.9666C76.3419 46.0526 57.2565 43.5729 37.2053 34.7672C16.6459 25.7844 2.16033 13.335 2.56694 6.35122C2.56694 6.35122 3.2531 4.833 3.431 4.42814C6.50601 -2.55567 26.7096 -0.455465 48.5397 9.10931C70.3698 18.6488 85.5669 32.0597 82.4665 39.0435Z" fill="#FCEBBF"/>
<path d="M82.6189 38.7399C79.5439 45.7237 59.3402 43.6235 37.5102 34.0587C15.6801 24.5192 0.482931 11.1083 3.55795 4.12449C6.63296 -2.85932 26.8366 -0.759115 48.6666 8.80566C70.4967 18.3451 85.6939 31.7561 82.6189 38.7399Z" fill="url(#paint45_linear_50_170)"/>
<path opacity="0.5" d="M48.6414 8.85627C70.4206 18.3957 85.6178 31.7814 82.5936 38.7652C82.5936 38.7652 82.5936 38.7399 82.6191 38.7399C85.6941 31.7561 70.4969 18.3451 48.6668 8.80566C26.8368 -0.759115 6.63314 -2.85932 3.55813 4.12449C3.55813 4.14979 3.55813 4.14979 3.53271 4.14979C6.68397 -2.78341 26.8368 -0.683204 48.6414 8.85627Z" fill="#FDEF9F"/>
<path d="M76.367 36.0071C73.7749 41.8775 56.7733 40.1316 38.3741 32.085C20.0002 24.0132 7.2173 12.7277 9.80947 6.85729C12.4016 0.986844 29.4032 2.7328 47.8024 10.7794C66.1763 18.8259 78.9592 30.1366 76.367 36.0071Z" fill="url(#paint46_linear_50_170)"/>
<path d="M76.367 36.0071C73.7749 41.8775 56.7733 40.1316 38.3741 32.085C20.0002 24.0132 7.2173 12.7277 9.80947 6.85729C12.4016 0.986844 29.4032 2.7328 47.8024 10.7794C66.1763 18.8259 78.9592 30.1366 76.367 36.0071Z" fill="url(#paint47_linear_50_170)"/>
<path d="M47.7771 10.7793C66.1001 18.8006 78.883 30.0607 76.3671 35.9565C76.3671 35.9312 76.3925 35.9311 76.3925 35.9058C78.9847 30.0354 66.2018 18.75 47.8025 10.7034C29.4541 2.65686 12.4271 0.885608 9.83498 6.75605C9.83498 6.78136 9.83498 6.78136 9.80957 6.80666C12.478 0.986822 29.4541 2.75808 47.7771 10.7793Z" fill="#FDEF9F"/>
<path opacity="0.3" d="M38.3995 32.0597C20.051 24.0385 7.26813 12.7783 9.78405 6.8826C9.78405 6.8826 9.78405 6.9079 9.75863 6.9079C7.16647 12.8037 19.9748 24.0891 38.3487 32.1356C56.7225 40.1822 73.724 41.9534 76.3416 36.0577C76.3416 36.0577 76.3416 36.0324 76.367 36.0324C73.6986 41.8775 56.7225 40.1063 38.3995 32.0597Z" fill="#FDEF9F"/>
<path opacity="0.4" d="M47.5739 11.2601C65.7952 19.2308 78.5782 30.2378 76.291 36.1589C76.3164 36.1083 76.3418 36.0577 76.3672 36.0071C78.9594 30.1366 66.1764 18.8512 47.7772 10.8046C29.4033 2.73277 12.4018 0.986824 9.80964 6.85727C9.78423 6.90788 9.75881 6.95848 9.7334 7.00909C12.5543 1.34107 29.3525 3.28945 47.5739 11.2601Z" fill="#79451B"/>
<path opacity="0.3" d="M8.53906 0.632599L72.9873 42.8138C78.0192 42.6367 81.5008 41.2956 82.619 38.7146C82.9748 37.9049 83.1018 36.9939 82.9748 36.0071L32.3768 2.90993C22.3639 0.101223 13.7488 -0.708494 8.53906 0.632599Z" fill="url(#paint48_linear_50_170)"/>
</g>
<defs>
<linearGradient id="paint0_linear_50_170" x1="0.0970179" y1="10.0759" x2="80.8543" y2="44.5067" gradientUnits="userSpaceOnUse">
<stop stop-color="#A27903"/>
<stop offset="0.0177" stop-color="#BC9D2D"/>
<stop offset="0.0367" stop-color="#D4BD53"/>
<stop offset="0.0557" stop-color="#E7D671"/>
<stop offset="0.0743" stop-color="#F4E887"/>
<stop offset="0.0923" stop-color="#FCF394"/>
<stop offset="0.1091" stop-color="#FFF798"/>
<stop offset="0.1871" stop-color="#CFB74C"/>
<stop offset="0.2654" stop-color="#A27903"/>
<stop offset="0.3769" stop-color="#A27903"/>
<stop offset="0.5396" stop-color="#D0A726"/>
<stop offset="0.6432" stop-color="#FFF798"/>
<stop offset="0.7009" stop-color="#FFF798"/>
<stop offset="0.7621" stop-color="#A27903"/>
<stop offset="0.7933" stop-color="#A57D06"/>
<stop offset="0.8223" stop-color="#AD880F"/>
<stop offset="0.8505" stop-color="#BC9B1E"/>
<stop offset="0.8781" stop-color="#D0B534"/>
<stop offset="0.9051" stop-color="#EAD74F"/>
<stop offset="0.9218" stop-color="#FDF063"/>
<stop offset="0.9546" stop-color="#FCEE61"/>
<stop offset="0.9692" stop-color="#F7E75B"/>
<stop offset="0.9801" stop-color="#EFDA51"/>
<stop offset="0.9893" stop-color="#E4C842"/>
<stop offset="0.9973" stop-color="#D6B12E"/>
<stop offset="1" stop-color="#D0A726"/>
</linearGradient>
<linearGradient id="paint1_linear_50_170" x1="0.747082" y1="9.74951" x2="2.76972" y2="10.6273" gradientUnits="userSpaceOnUse">
<stop stop-color="#A27903"/>
<stop offset="0.0669" stop-color="#B18E2B"/>
<stop offset="0.1603" stop-color="#C3A95C"/>
<stop offset="0.2587" stop-color="#D3C088"/>
<stop offset="0.3602" stop-color="#E1D3AD"/>
<stop offset="0.4659" stop-color="#ECE3CB"/>
<stop offset="0.5769" stop-color="#F4EFE2"/>
<stop offset="0.6958" stop-color="#FAF8F2"/>
<stop offset="0.8279" stop-color="#FEFDFC"/>
<stop offset="1" stop-color="white"/>
</linearGradient>
<linearGradient id="paint2_linear_50_170" x1="5.01274" y1="5.0739" x2="7.04537" y2="5.95609" gradientUnits="userSpaceOnUse">
<stop stop-color="#A27903"/>
<stop offset="0.0669" stop-color="#B18E2B"/>
<stop offset="0.1603" stop-color="#C3A95C"/>
<stop offset="0.2587" stop-color="#D3C088"/>
<stop offset="0.3602" stop-color="#E1D3AD"/>
<stop offset="0.4659" stop-color="#ECE3CB"/>
<stop offset="0.5769" stop-color="#F4EFE2"/>
<stop offset="0.6958" stop-color="#FAF8F2"/>
<stop offset="0.8279" stop-color="#FEFDFC"/>
<stop offset="1" stop-color="white"/>
</linearGradient>
<linearGradient id="paint3_linear_50_170" x1="2.46716" y1="10.9714" x2="4.4898" y2="11.8492" gradientUnits="userSpaceOnUse">
<stop stop-color="#A27903"/>
<stop offset="0.0669" stop-color="#B18E2B"/>
<stop offset="0.1603" stop-color="#C3A95C"/>
<stop offset="0.2587" stop-color="#D3C088"/>
<stop offset="0.3602" stop-color="#E1D3AD"/>
<stop offset="0.4659" stop-color="#ECE3CB"/>
<stop offset="0.5769" stop-color="#F4EFE2"/>
<stop offset="0.6958" stop-color="#FAF8F2"/>
<stop offset="0.8279" stop-color="#FEFDFC"/>
<stop offset="1" stop-color="white"/>
</linearGradient>
<linearGradient id="paint4_linear_50_170" x1="4.1053" y1="12.3766" x2="6.13053" y2="13.2542" gradientUnits="userSpaceOnUse">
<stop stop-color="#A27903"/>
<stop offset="0.0669" stop-color="#B18E2B"/>
<stop offset="0.1603" stop-color="#C3A95C"/>
<stop offset="0.2587" stop-color="#D3C088"/>
<stop offset="0.3602" stop-color="#E1D3AD"/>
<stop offset="0.4659" stop-color="#ECE3CB"/>
<stop offset="0.5769" stop-color="#F4EFE2"/>
<stop offset="0.6958" stop-color="#FAF8F2"/>
<stop offset="0.8279" stop-color="#FEFDFC"/>
<stop offset="1" stop-color="white"/>
</linearGradient>
<linearGradient id="paint5_linear_50_170" x1="5.79358" y1="13.6679" x2="7.81854" y2="14.5467" gradientUnits="userSpaceOnUse">
<stop stop-color="#A27903"/>
<stop offset="0.0669" stop-color="#B18E2B"/>
<stop offset="0.1603" stop-color="#C3A95C"/>
<stop offset="0.2587" stop-color="#D3C088"/>
<stop offset="0.3602" stop-color="#E1D3AD"/>
<stop offset="0.4659" stop-color="#ECE3CB"/>
<stop offset="0.5769" stop-color="#F4EFE2"/>
<stop offset="0.6958" stop-color="#FAF8F2"/>
<stop offset="0.8279" stop-color="#FEFDFC"/>
<stop offset="1" stop-color="white"/>
</linearGradient>
<linearGradient id="paint6_linear_50_170" x1="7.514" y1="14.8853" x2="9.54179" y2="15.764" gradientUnits="userSpaceOnUse">
<stop stop-color="#A27903"/>
<stop offset="0.0669" stop-color="#B18E2B"/>
<stop offset="0.1603" stop-color="#C3A95C"/>
<stop offset="0.2587" stop-color="#D3C088"/>
<stop offset="0.3602" stop-color="#E1D3AD"/>
<stop offset="0.4659" stop-color="#ECE3CB"/>
<stop offset="0.5769" stop-color="#F4EFE2"/>
<stop offset="0.6958" stop-color="#FAF8F2"/>
<stop offset="0.8279" stop-color="#FEFDFC"/>
<stop offset="1" stop-color="white"/>
</linearGradient>
<linearGradient id="paint7_linear_50_170" x1="9.25822" y1="16.0475" x2="11.286" y2="16.9276" gradientUnits="userSpaceOnUse">
<stop stop-color="#A27903"/>
<stop offset="0.0669" stop-color="#B18E2B"/>
<stop offset="0.1603" stop-color="#C3A95C"/>
<stop offset="0.2587" stop-color="#D3C088"/>
<stop offset="0.3602" stop-color="#E1D3AD"/>
<stop offset="0.4659" stop-color="#ECE3CB"/>
<stop offset="0.5769" stop-color="#F4EFE2"/>
<stop offset="0.6958" stop-color="#FAF8F2"/>
<stop offset="0.8279" stop-color="#FEFDFC"/>
<stop offset="1" stop-color="white"/>
</linearGradient>
<linearGradient id="paint8_linear_50_170" x1="11.0218" y1="17.1677" x2="13.0501" y2="18.0465" gradientUnits="userSpaceOnUse">
<stop stop-color="#A27903"/>
<stop offset="0.0669" stop-color="#B18E2B"/>
<stop offset="0.1603" stop-color="#C3A95C"/>
<stop offset="0.2587" stop-color="#D3C088"/>
<stop offset="0.3602" stop-color="#E1D3AD"/>
<stop offset="0.4659" stop-color="#ECE3CB"/>
<stop offset="0.5769" stop-color="#F4EFE2"/>
<stop offset="0.6958" stop-color="#FAF8F2"/>
<stop offset="0.8279" stop-color="#FEFDFC"/>
<stop offset="1" stop-color="white"/>
</linearGradient>
<linearGradient id="paint9_linear_50_170" x1="12.8018" y1="18.2522" x2="14.8301" y2="19.1304" gradientUnits="userSpaceOnUse">
<stop stop-color="#A27903"/>
<stop offset="0.0669" stop-color="#B18E2B"/>
<stop offset="0.1603" stop-color="#C3A95C"/>
<stop offset="0.2587" stop-color="#D3C088"/>
<stop offset="0.3602" stop-color="#E1D3AD"/>
<stop offset="0.4659" stop-color="#ECE3CB"/>
<stop offset="0.5769" stop-color="#F4EFE2"/>
<stop offset="0.6958" stop-color="#FAF8F2"/>
<stop offset="0.8279" stop-color="#FEFDFC"/>
<stop offset="1" stop-color="white"/>
</linearGradient>
<linearGradient id="paint10_linear_50_170" x1="14.5924" y1="19.3055" x2="16.6225" y2="20.1865" gradientUnits="userSpaceOnUse">
<stop stop-color="#A27903"/>
<stop offset="0.0669" stop-color="#B18E2B"/>
<stop offset="0.1603" stop-color="#C3A95C"/>
<stop offset="0.2587" stop-color="#D3C088"/>
<stop offset="0.3602" stop-color="#E1D3AD"/>
<stop offset="0.4659" stop-color="#ECE3CB"/>
<stop offset="0.5769" stop-color="#F4EFE2"/>
<stop offset="0.6958" stop-color="#FAF8F2"/>
<stop offset="0.8279" stop-color="#FEFDFC"/>
<stop offset="1" stop-color="white"/>
</linearGradient>
<linearGradient id="paint11_linear_50_170" x1="16.3963" y1="20.3335" x2="18.4259" y2="21.2123" gradientUnits="userSpaceOnUse">
<stop stop-color="#A27903"/>
<stop offset="0.0669" stop-color="#B18E2B"/>
<stop offset="0.1603" stop-color="#C3A95C"/>
<stop offset="0.2587" stop-color="#D3C088"/>
<stop offset="0.3602" stop-color="#E1D3AD"/>
<stop offset="0.4659" stop-color="#ECE3CB"/>
<stop offset="0.5769" stop-color="#F4EFE2"/>
<stop offset="0.6958" stop-color="#FAF8F2"/>
<stop offset="0.8279" stop-color="#FEFDFC"/>
<stop offset="1" stop-color="white"/>
</linearGradient>
<linearGradient id="paint12_linear_50_170" x1="18.2087" y1="21.3384" x2="20.2395" y2="22.2198" gradientUnits="userSpaceOnUse">
<stop stop-color="#A27903"/>
<stop offset="0.0669" stop-color="#B18E2B"/>
<stop offset="0.1603" stop-color="#C3A95C"/>
<stop offset="0.2587" stop-color="#D3C088"/>
<stop offset="0.3602" stop-color="#E1D3AD"/>
<stop offset="0.4659" stop-color="#ECE3CB"/>
<stop offset="0.5769" stop-color="#F4EFE2"/>
<stop offset="0.6958" stop-color="#FAF8F2"/>
<stop offset="0.8279" stop-color="#FEFDFC"/>
<stop offset="1" stop-color="white"/>
</linearGradient>
<linearGradient id="paint13_linear_50_170" x1="20.0325" y1="22.32" x2="22.0631" y2="23.1992" gradientUnits="userSpaceOnUse">
<stop stop-color="#A27903"/>
<stop offset="0.0669" stop-color="#B18E2B"/>
<stop offset="0.1603" stop-color="#C3A95C"/>
<stop offset="0.2587" stop-color="#D3C088"/>
<stop offset="0.3602" stop-color="#E1D3AD"/>
<stop offset="0.4659" stop-color="#ECE3CB"/>
<stop offset="0.5769" stop-color="#F4EFE2"/>
<stop offset="0.6958" stop-color="#FAF8F2"/>
<stop offset="0.8279" stop-color="#FEFDFC"/>
<stop offset="1" stop-color="white"/>
</linearGradient>
<linearGradient id="paint14_linear_50_170" x1="21.8648" y1="23.284" x2="23.8949" y2="24.163" gradientUnits="userSpaceOnUse">
<stop stop-color="#A27903"/>
<stop offset="0.0669" stop-color="#B18E2B"/>
<stop offset="0.1603" stop-color="#C3A95C"/>
<stop offset="0.2587" stop-color="#D3C088"/>
<stop offset="0.3602" stop-color="#E1D3AD"/>
<stop offset="0.4659" stop-color="#ECE3CB"/>
<stop offset="0.5769" stop-color="#F4EFE2"/>
<stop offset="0.6958" stop-color="#FAF8F2"/>
<stop offset="0.8279" stop-color="#FEFDFC"/>
<stop offset="1" stop-color="white"/>
</linearGradient>
<linearGradient id="paint15_linear_50_170" x1="23.704" y1="24.2274" x2="25.7353" y2="25.1089" gradientUnits="userSpaceOnUse">
<stop stop-color="#A27903"/>
<stop offset="0.0669" stop-color="#B18E2B"/>
<stop offset="0.1603" stop-color="#C3A95C"/>
<stop offset="0.2587" stop-color="#D3C088"/>
<stop offset="0.3602" stop-color="#E1D3AD"/>
<stop offset="0.4659" stop-color="#ECE3CB"/>
<stop offset="0.5769" stop-color="#F4EFE2"/>
<stop offset="0.6958" stop-color="#FAF8F2"/>
<stop offset="0.8279" stop-color="#FEFDFC"/>
<stop offset="1" stop-color="white"/>
</linearGradient>
<linearGradient id="paint16_linear_50_170" x1="25.5511" y1="25.1536" x2="27.5821" y2="26.0337" gradientUnits="userSpaceOnUse">
<stop stop-color="#A27903"/>
<stop offset="0.0669" stop-color="#B18E2B"/>
<stop offset="0.1603" stop-color="#C3A95C"/>
<stop offset="0.2587" stop-color="#D3C088"/>
<stop offset="0.3602" stop-color="#E1D3AD"/>
<stop offset="0.4659" stop-color="#ECE3CB"/>
<stop offset="0.5769" stop-color="#F4EFE2"/>
<stop offset="0.6958" stop-color="#FAF8F2"/>
<stop offset="0.8279" stop-color="#FEFDFC"/>
<stop offset="1" stop-color="white"/>
</linearGradient>
<linearGradient id="paint17_linear_50_170" x1="27.4067" y1="26.065" x2="29.437" y2="26.9448" gradientUnits="userSpaceOnUse">
<stop stop-color="#A27903"/>
<stop offset="0.0669" stop-color="#B18E2B"/>
<stop offset="0.1603" stop-color="#C3A95C"/>
<stop offset="0.2587" stop-color="#D3C088"/>
<stop offset="0.3602" stop-color="#E1D3AD"/>
<stop offset="0.4659" stop-color="#ECE3CB"/>
<stop offset="0.5769" stop-color="#F4EFE2"/>
<stop offset="0.6958" stop-color="#FAF8F2"/>
<stop offset="0.8279" stop-color="#FEFDFC"/>
<stop offset="1" stop-color="white"/>
</linearGradient>
<linearGradient id="paint18_linear_50_170" x1="29.2679" y1="26.9589" x2="31.3001" y2="27.8395" gradientUnits="userSpaceOnUse">
<stop stop-color="#A27903"/>
<stop offset="0.0669" stop-color="#B18E2B"/>
<stop offset="0.1603" stop-color="#C3A95C"/>
<stop offset="0.2587" stop-color="#D3C088"/>
<stop offset="0.3602" stop-color="#E1D3AD"/>
<stop offset="0.4659" stop-color="#ECE3CB"/>
<stop offset="0.5769" stop-color="#F4EFE2"/>
<stop offset="0.6958" stop-color="#FAF8F2"/>
<stop offset="0.8279" stop-color="#FEFDFC"/>
<stop offset="1" stop-color="white"/>
</linearGradient>
<linearGradient id="paint19_linear_50_170" x1="31.1353" y1="27.8378" x2="33.1684" y2="28.7202" gradientUnits="userSpaceOnUse">
<stop stop-color="#A27903"/>
<stop offset="0.0669" stop-color="#B18E2B"/>
<stop offset="0.1603" stop-color="#C3A95C"/>
<stop offset="0.2587" stop-color="#D3C088"/>
<stop offset="0.3602" stop-color="#E1D3AD"/>
<stop offset="0.4659" stop-color="#ECE3CB"/>
<stop offset="0.5769" stop-color="#F4EFE2"/>
<stop offset="0.6958" stop-color="#FAF8F2"/>
<stop offset="0.8279" stop-color="#FEFDFC"/>
<stop offset="1" stop-color="white"/>
</linearGradient>
<linearGradient id="paint20_linear_50_170" x1="33.0095" y1="28.7011" x2="35.0424" y2="29.582" gradientUnits="userSpaceOnUse">
<stop stop-color="#A27903"/>
<stop offset="0.0669" stop-color="#B18E2B"/>
<stop offset="0.1603" stop-color="#C3A95C"/>
<stop offset="0.2587" stop-color="#D3C088"/>
<stop offset="0.3602" stop-color="#E1D3AD"/>
<stop offset="0.4659" stop-color="#ECE3CB"/>
<stop offset="0.5769" stop-color="#F4EFE2"/>
<stop offset="0.6958" stop-color="#FAF8F2"/>
<stop offset="0.8279" stop-color="#FEFDFC"/>
<stop offset="1" stop-color="white"/>
</linearGradient>
<linearGradient id="paint21_linear_50_170" x1="34.8918" y1="29.5504" x2="36.924" y2="30.4324" gradientUnits="userSpaceOnUse">
<stop stop-color="#A27903"/>
<stop offset="0.0669" stop-color="#B18E2B"/>
<stop offset="0.1603" stop-color="#C3A95C"/>
<stop offset="0.2587" stop-color="#D3C088"/>
<stop offset="0.3602" stop-color="#E1D3AD"/>
<stop offset="0.4659" stop-color="#ECE3CB"/>
<stop offset="0.5769" stop-color="#F4EFE2"/>
<stop offset="0.6958" stop-color="#FAF8F2"/>
<stop offset="0.8279" stop-color="#FEFDFC"/>
<stop offset="1" stop-color="white"/>
</linearGradient>
<linearGradient id="paint22_linear_50_170" x1="36.7802" y1="30.3861" x2="38.8129" y2="31.2663" gradientUnits="userSpaceOnUse">
<stop stop-color="#A27903"/>
<stop offset="0.0669" stop-color="#B18E2B"/>
<stop offset="0.1603" stop-color="#C3A95C"/>
<stop offset="0.2587" stop-color="#D3C088"/>
<stop offset="0.3602" stop-color="#E1D3AD"/>
<stop offset="0.4659" stop-color="#ECE3CB"/>
<stop offset="0.5769" stop-color="#F4EFE2"/>
<stop offset="0.6958" stop-color="#FAF8F2"/>
<stop offset="0.8279" stop-color="#FEFDFC"/>
<stop offset="1" stop-color="white"/>
</linearGradient>
<linearGradient id="paint23_linear_50_170" x1="38.6707" y1="31.213" x2="40.7026" y2="32.0935" gradientUnits="userSpaceOnUse">
<stop stop-color="#A27903"/>
<stop offset="0.0669" stop-color="#B18E2B"/>
<stop offset="0.1603" stop-color="#C3A95C"/>
<stop offset="0.2587" stop-color="#D3C088"/>
<stop offset="0.3602" stop-color="#E1D3AD"/>
<stop offset="0.4659" stop-color="#ECE3CB"/>
<stop offset="0.5769" stop-color="#F4EFE2"/>
<stop offset="0.6958" stop-color="#FAF8F2"/>
<stop offset="0.8279" stop-color="#FEFDFC"/>
<stop offset="1" stop-color="white"/>
</linearGradient>
<linearGradient id="paint24_linear_50_170" x1="40.564" y1="32.033" x2="42.5964" y2="32.9137" gradientUnits="userSpaceOnUse">
<stop stop-color="#A27903"/>
<stop offset="0.0669" stop-color="#B18E2B"/>
<stop offset="0.1603" stop-color="#C3A95C"/>
<stop offset="0.2587" stop-color="#D3C088"/>
<stop offset="0.3602" stop-color="#E1D3AD"/>
<stop offset="0.4659" stop-color="#ECE3CB"/>
<stop offset="0.5769" stop-color="#F4EFE2"/>
<stop offset="0.6958" stop-color="#FAF8F2"/>
<stop offset="0.8279" stop-color="#FEFDFC"/>
<stop offset="1" stop-color="white"/>
</linearGradient>
<linearGradient id="paint25_linear_50_170" x1="42.4644" y1="32.8394" x2="44.4965" y2="33.7214" gradientUnits="userSpaceOnUse">
<stop stop-color="#A27903"/>
<stop offset="0.0669" stop-color="#B18E2B"/>
<stop offset="0.1603" stop-color="#C3A95C"/>
<stop offset="0.2587" stop-color="#D3C088"/>
<stop offset="0.3602" stop-color="#E1D3AD"/>
<stop offset="0.4659" stop-color="#ECE3CB"/>
<stop offset="0.5769" stop-color="#F4EFE2"/>
<stop offset="0.6958" stop-color="#FAF8F2"/>
<stop offset="0.8279" stop-color="#FEFDFC"/>
<stop offset="1" stop-color="white"/>
</linearGradient>
<linearGradient id="paint26_linear_50_170" x1="44.3714" y1="33.6309" x2="46.4021" y2="34.5122" gradientUnits="userSpaceOnUse">
<stop stop-color="#A27903"/>
<stop offset="0.0669" stop-color="#B18E2B"/>
<stop offset="0.1603" stop-color="#C3A95C"/>
<stop offset="0.2587" stop-color="#D3C088"/>
<stop offset="0.3602" stop-color="#E1D3AD"/>
<stop offset="0.4659" stop-color="#ECE3CB"/>
<stop offset="0.5769" stop-color="#F4EFE2"/>
<stop offset="0.6958" stop-color="#FAF8F2"/>
<stop offset="0.8279" stop-color="#FEFDFC"/>
<stop offset="1" stop-color="white"/>
</linearGradient>
<linearGradient id="paint27_linear_50_170" x1="46.2839" y1="34.4084" x2="48.3149" y2="35.2899" gradientUnits="userSpaceOnUse">
<stop stop-color="#A27903"/>
<stop offset="0.0669" stop-color="#B18E2B"/>
<stop offset="0.1603" stop-color="#C3A95C"/>
<stop offset="0.2587" stop-color="#D3C088"/>
<stop offset="0.3602" stop-color="#E1D3AD"/>
<stop offset="0.4659" stop-color="#ECE3CB"/>
<stop offset="0.5769" stop-color="#F4EFE2"/>
<stop offset="0.6958" stop-color="#FAF8F2"/>
<stop offset="0.8279" stop-color="#FEFDFC"/>
<stop offset="1" stop-color="white"/>
</linearGradient>
<linearGradient id="paint28_linear_50_170" x1="48.2037" y1="35.1697" x2="50.2354" y2="36.0501" gradientUnits="userSpaceOnUse">
<stop stop-color="#A27903"/>
<stop offset="0.0669" stop-color="#B18E2B"/>
<stop offset="0.1603" stop-color="#C3A95C"/>
<stop offset="0.2587" stop-color="#D3C088"/>
<stop offset="0.3602" stop-color="#E1D3AD"/>
<stop offset="0.4659" stop-color="#ECE3CB"/>
<stop offset="0.5769" stop-color="#F4EFE2"/>
<stop offset="0.6958" stop-color="#FAF8F2"/>
<stop offset="0.8279" stop-color="#FEFDFC"/>
<stop offset="1" stop-color="white"/>
</linearGradient>
<linearGradient id="paint29_linear_50_170" x1="50.1308" y1="35.9148" x2="52.1606" y2="36.7958" gradientUnits="userSpaceOnUse">
<stop stop-color="#A27903"/>
<stop offset="0.0669" stop-color="#B18E2B"/>
<stop offset="0.1603" stop-color="#C3A95C"/>
<stop offset="0.2587" stop-color="#D3C088"/>
<stop offset="0.3602" stop-color="#E1D3AD"/>
<stop offset="0.4659" stop-color="#ECE3CB"/>
<stop offset="0.5769" stop-color="#F4EFE2"/>
<stop offset="0.6958" stop-color="#FAF8F2"/>
<stop offset="0.8279" stop-color="#FEFDFC"/>
<stop offset="1" stop-color="white"/>
</linearGradient>
<linearGradient id="paint30_linear_50_170" x1="52.0637" y1="36.6441" x2="54.0947" y2="37.5255" gradientUnits="userSpaceOnUse">
<stop stop-color="#A27903"/>
<stop offset="0.0669" stop-color="#B18E2B"/>
<stop offset="0.1603" stop-color="#C3A95C"/>
<stop offset="0.2587" stop-color="#D3C088"/>
<stop offset="0.3602" stop-color="#E1D3AD"/>
<stop offset="0.4659" stop-color="#ECE3CB"/>
<stop offset="0.5769" stop-color="#F4EFE2"/>
<stop offset="0.6958" stop-color="#FAF8F2"/>
<stop offset="0.8279" stop-color="#FEFDFC"/>
<stop offset="1" stop-color="white"/>
</linearGradient>
<linearGradient id="paint31_linear_50_170" x1="54.0047" y1="37.3546" x2="56.0367" y2="38.2351" gradientUnits="userSpaceOnUse">
<stop stop-color="#A27903"/>
<stop offset="0.0669" stop-color="#B18E2B"/>
<stop offset="0.1603" stop-color="#C3A95C"/>
<stop offset="0.2587" stop-color="#D3C088"/>
<stop offset="0.3602" stop-color="#E1D3AD"/>
<stop offset="0.4659" stop-color="#ECE3CB"/>
<stop offset="0.5769" stop-color="#F4EFE2"/>
<stop offset="0.6958" stop-color="#FAF8F2"/>
<stop offset="0.8279" stop-color="#FEFDFC"/>
<stop offset="1" stop-color="white"/>
</linearGradient>
<linearGradient id="paint32_linear_50_170" x1="55.9543" y1="38.0474" x2="57.9866" y2="38.9273" gradientUnits="userSpaceOnUse">
<stop stop-color="#A27903"/>
<stop offset="0.0669" stop-color="#B18E2B"/>
<stop offset="0.1603" stop-color="#C3A95C"/>
<stop offset="0.2587" stop-color="#D3C088"/>
<stop offset="0.3602" stop-color="#E1D3AD"/>
<stop offset="0.4659" stop-color="#ECE3CB"/>
<stop offset="0.5769" stop-color="#F4EFE2"/>
<stop offset="0.6958" stop-color="#FAF8F2"/>
<stop offset="0.8279" stop-color="#FEFDFC"/>
<stop offset="1" stop-color="white"/>
</linearGradient>
<linearGradient id="paint33_linear_50_170" x1="57.9133" y1="38.7202" x2="59.9427" y2="39.6009" gradientUnits="userSpaceOnUse">
<stop stop-color="#A27903"/>
<stop offset="0.0669" stop-color="#B18E2B"/>
<stop offset="0.1603" stop-color="#C3A95C"/>
<stop offset="0.2587" stop-color="#D3C088"/>
<stop offset="0.3602" stop-color="#E1D3AD"/>
<stop offset="0.4659" stop-color="#ECE3CB"/>
<stop offset="0.5769" stop-color="#F4EFE2"/>
<stop offset="0.6958" stop-color="#FAF8F2"/>
<stop offset="0.8279" stop-color="#FEFDFC"/>
<stop offset="1" stop-color="white"/>
</linearGradient>
<linearGradient id="paint34_linear_50_170" x1="59.8797" y1="39.3724" x2="61.9106" y2="40.2517" gradientUnits="userSpaceOnUse">
<stop stop-color="#A27903"/>
<stop offset="0.0669" stop-color="#B18E2B"/>
<stop offset="0.1603" stop-color="#C3A95C"/>
<stop offset="0.2587" stop-color="#D3C088"/>
<stop offset="0.3602" stop-color="#E1D3AD"/>
<stop offset="0.4659" stop-color="#ECE3CB"/>
<stop offset="0.5769" stop-color="#F4EFE2"/>
<stop offset="0.6958" stop-color="#FAF8F2"/>
<stop offset="0.8279" stop-color="#FEFDFC"/>
<stop offset="1" stop-color="white"/>
</linearGradient>
<linearGradient id="paint35_linear_50_170" x1="61.8578" y1="39.9999" x2="63.8886" y2="40.8799" gradientUnits="userSpaceOnUse">
<stop stop-color="#A27903"/>
<stop offset="0.0669" stop-color="#B18E2B"/>
<stop offset="0.1603" stop-color="#C3A95C"/>
<stop offset="0.2587" stop-color="#D3C088"/>
<stop offset="0.3602" stop-color="#E1D3AD"/>
<stop offset="0.4659" stop-color="#ECE3CB"/>
<stop offset="0.5769" stop-color="#F4EFE2"/>
<stop offset="0.6958" stop-color="#FAF8F2"/>
<stop offset="0.8279" stop-color="#FEFDFC"/>
<stop offset="1" stop-color="white"/>
</linearGradient>
<linearGradient id="paint36_linear_50_170" x1="63.8469" y1="40.6007" x2="65.8765" y2="41.4802" gradientUnits="userSpaceOnUse">
<stop stop-color="#A27903"/>
<stop offset="0.0669" stop-color="#B18E2B"/>
<stop offset="0.1603" stop-color="#C3A95C"/>
<stop offset="0.2587" stop-color="#D3C088"/>
<stop offset="0.3602" stop-color="#E1D3AD"/>
<stop offset="0.4659" stop-color="#ECE3CB"/>
<stop offset="0.5769" stop-color="#F4EFE2"/>
<stop offset="0.6958" stop-color="#FAF8F2"/>
<stop offset="0.8279" stop-color="#FEFDFC"/>
<stop offset="1" stop-color="white"/>
</linearGradient>
<linearGradient id="paint37_linear_50_170" x1="65.8503" y1="41.1727" x2="67.8783" y2="42.0528" gradientUnits="userSpaceOnUse">
<stop stop-color="#A27903"/>
<stop offset="0.0669" stop-color="#B18E2B"/>
<stop offset="0.1603" stop-color="#C3A95C"/>
<stop offset="0.2587" stop-color="#D3C088"/>
<stop offset="0.3602" stop-color="#E1D3AD"/>
<stop offset="0.4659" stop-color="#ECE3CB"/>
<stop offset="0.5769" stop-color="#F4EFE2"/>
<stop offset="0.6958" stop-color="#FAF8F2"/>
<stop offset="0.8279" stop-color="#FEFDFC"/>
<stop offset="1" stop-color="white"/>
</linearGradient>
<linearGradient id="paint38_linear_50_170" x1="67.8676" y1="41.708" x2="69.8971" y2="42.5874" gradientUnits="userSpaceOnUse">
<stop stop-color="#A27903"/>
<stop offset="0.0669" stop-color="#B18E2B"/>
<stop offset="0.1603" stop-color="#C3A95C"/>
<stop offset="0.2587" stop-color="#D3C088"/>
<stop offset="0.3602" stop-color="#E1D3AD"/>
<stop offset="0.4659" stop-color="#ECE3CB"/>
<stop offset="0.5769" stop-color="#F4EFE2"/>
<stop offset="0.6958" stop-color="#FAF8F2"/>
<stop offset="0.8279" stop-color="#FEFDFC"/>
<stop offset="1" stop-color="white"/>
</linearGradient>
<linearGradient id="paint39_linear_50_170" x1="69.9042" y1="42.201" x2="71.931" y2="43.0807" gradientUnits="userSpaceOnUse">
<stop stop-color="#A27903"/>
<stop offset="0.0669" stop-color="#B18E2B"/>
<stop offset="0.1603" stop-color="#C3A95C"/>
<stop offset="0.2587" stop-color="#D3C088"/>
<stop offset="0.3602" stop-color="#E1D3AD"/>
<stop offset="0.4659" stop-color="#ECE3CB"/>
<stop offset="0.5769" stop-color="#F4EFE2"/>
<stop offset="0.6958" stop-color="#FAF8F2"/>
<stop offset="0.8279" stop-color="#FEFDFC"/>
<stop offset="1" stop-color="white"/>
</linearGradient>
<linearGradient id="paint40_linear_50_170" x1="71.9637" y1="42.6394" x2="73.9917" y2="43.5175" gradientUnits="userSpaceOnUse">
<stop stop-color="#A27903"/>
<stop offset="0.0669" stop-color="#B18E2B"/>
<stop offset="0.1603" stop-color="#C3A95C"/>
<stop offset="0.2587" stop-color="#D3C088"/>
<stop offset="0.3602" stop-color="#E1D3AD"/>
<stop offset="0.4659" stop-color="#ECE3CB"/>
<stop offset="0.5769" stop-color="#F4EFE2"/>
<stop offset="0.6958" stop-color="#FAF8F2"/>
<stop offset="0.8279" stop-color="#FEFDFC"/>
<stop offset="1" stop-color="white"/>
</linearGradient>
<linearGradient id="paint41_linear_50_170" x1="74.0574" y1="43.0033" x2="76.0819" y2="43.8806" gradientUnits="userSpaceOnUse">
<stop stop-color="#A27903"/>
<stop offset="0.0669" stop-color="#B18E2B"/>
<stop offset="0.1603" stop-color="#C3A95C"/>
<stop offset="0.2587" stop-color="#D3C088"/>
<stop offset="0.3602" stop-color="#E1D3AD"/>
<stop offset="0.4659" stop-color="#ECE3CB"/>
<stop offset="0.5769" stop-color="#F4EFE2"/>
<stop offset="0.6958" stop-color="#FAF8F2"/>
<stop offset="0.8279" stop-color="#FEFDFC"/>
<stop offset="1" stop-color="white"/>
</linearGradient>
<linearGradient id="paint42_linear_50_170" x1="78.746" y1="37.3593" x2="80.7778" y2="38.2397" gradientUnits="userSpaceOnUse">
<stop stop-color="#A27903"/>
<stop offset="0.0669" stop-color="#B18E2B"/>
<stop offset="0.1603" stop-color="#C3A95C"/>
<stop offset="0.2587" stop-color="#D3C088"/>
<stop offset="0.3602" stop-color="#E1D3AD"/>
<stop offset="0.4659" stop-color="#ECE3CB"/>
<stop offset="0.5769" stop-color="#F4EFE2"/>
<stop offset="0.6958" stop-color="#FAF8F2"/>
<stop offset="0.8279" stop-color="#FEFDFC"/>
<stop offset="1" stop-color="white"/>
</linearGradient>
<linearGradient id="paint43_linear_50_170" x1="76.2001" y1="43.254" x2="78.2244" y2="44.1325" gradientUnits="userSpaceOnUse">
<stop stop-color="#A27903"/>
<stop offset="0.0669" stop-color="#B18E2B"/>
<stop offset="0.1603" stop-color="#C3A95C"/>
<stop offset="0.2587" stop-color="#D3C088"/>
<stop offset="0.3602" stop-color="#E1D3AD"/>
<stop offset="0.4659" stop-color="#ECE3CB"/>
<stop offset="0.5769" stop-color="#F4EFE2"/>
<stop offset="0.6958" stop-color="#FAF8F2"/>
<stop offset="0.8279" stop-color="#FEFDFC"/>
<stop offset="1" stop-color="white"/>
</linearGradient>
<linearGradient id="paint44_linear_50_170" x1="78.2638" y1="43.6872" x2="80.2842" y2="44.5626" gradientUnits="userSpaceOnUse">
<stop stop-color="#A27903"/>
<stop offset="0.0669" stop-color="#B18E2B"/>
<stop offset="0.1603" stop-color="#C3A95C"/>
<stop offset="0.2587" stop-color="#D3C088"/>
<stop offset="0.3602" stop-color="#E1D3AD"/>
<stop offset="0.4659" stop-color="#ECE3CB"/>
<stop offset="0.5769" stop-color="#F4EFE2"/>
<stop offset="0.6958" stop-color="#FAF8F2"/>
<stop offset="0.8279" stop-color="#FEFDFC"/>
<stop offset="1" stop-color="white"/>
</linearGradient>
<linearGradient id="paint45_linear_50_170" x1="31.3442" y1="2.34664" x2="25.2071" y2="34.9316" gradientUnits="userSpaceOnUse">
<stop offset="0.00122639" stop-color="#805A1D"/>
<stop offset="0.0185" stop-color="#865E1E"/>
<stop offset="0.1579" stop-color="#B27F28"/>
<stop offset="0.2286" stop-color="#C38B2C"/>
<stop offset="0.3671" stop-color="#DAAB56"/>
<stop offset="0.5678" stop-color="#FEDE9A"/>
<stop offset="0.6282" stop-color="#F0CA80"/>
<stop offset="0.757" stop-color="#CC973C"/>
<stop offset="0.7862" stop-color="#C38B2C"/>
<stop offset="0.8833" stop-color="#A37425"/>
<stop offset="0.9784" stop-color="#805A1D"/>
</linearGradient>
<linearGradient id="paint46_linear_50_170" x1="38.3881" y1="32.0696" x2="47.7201" y2="10.7592" gradientUnits="userSpaceOnUse">
<stop stop-color="#E7BB03"/>
<stop offset="0.1099" stop-color="#DAAB02"/>
<stop offset="0.2171" stop-color="#D2A002"/>
<stop offset="0.3653" stop-color="#E3BA1F"/>
<stop offset="0.5691" stop-color="#F7D842"/>
<stop offset="0.6791" stop-color="#FFE44F"/>
<stop offset="0.7447" stop-color="#FDE14A"/>
<stop offset="0.8267" stop-color="#F8D93A"/>
<stop offset="0.9172" stop-color="#F0CB21"/>
<stop offset="1" stop-color="#E7BB03"/>
</linearGradient>
<linearGradient id="paint47_linear_50_170" x1="38.3881" y1="32.0696" x2="47.7201" y2="10.7592" gradientUnits="userSpaceOnUse">
<stop offset="0.00122639" stop-color="#805A1D"/>
<stop offset="0.0185" stop-color="#865E1E"/>
<stop offset="0.1579" stop-color="#B27F28"/>
<stop offset="0.2286" stop-color="#C38B2C"/>
<stop offset="0.3671" stop-color="#DAAB56"/>
<stop offset="0.5678" stop-color="#FEDE9A"/>
<stop offset="0.6282" stop-color="#F0CA80"/>
<stop offset="0.757" stop-color="#CC973C"/>
<stop offset="0.7862" stop-color="#C38B2C"/>
<stop offset="0.8833" stop-color="#A37425"/>
<stop offset="0.9784" stop-color="#805A1D"/>
</linearGradient>
<linearGradient id="paint48_linear_50_170" x1="43.3144" y1="23.2466" x2="49.1247" y2="14.1282" gradientUnits="userSpaceOnUse">
<stop offset="0.0371"/>
<stop offset="0.038" stop-color="#070704"/>
<stop offset="0.0455" stop-color="#3B3621"/>
<stop offset="0.0535" stop-color="#69623B"/>
<stop offset="0.0619" stop-color="#928751"/>
<stop offset="0.0706" stop-color="#B3A764"/>
<stop offset="0.0799" stop-color="#CFC073"/>
<stop offset="0.0899" stop-color="#E4D47F"/>
<stop offset="0.101" stop-color="#F3E288"/>
<stop offset="0.114" stop-color="#FCEA8C"/>
<stop offset="0.1336" stop-color="#FFED8E"/>
<stop offset="0.2228" stop-color="#D3C475"/>
<stop offset="0.3624" stop-color="#938952"/>
<stop offset="0.4961" stop-color="#5F5835"/>
<stop offset="0.6199" stop-color="#36321E"/>
<stop offset="0.732" stop-color="#18170E"/>
<stop offset="0.8283" stop-color="#060604"/>
<stop offset="0.8978"/>
</linearGradient>
<clipPath id="clip0_50_170">
<rect width="83" height="50" fill="white"/>
</clipPath>
</defs>
</svg>
