<svg width="54" height="54" viewBox="0 0 54 54" fill="none" xmlns="http://www.w3.org/2000/svg">
<rect x="0.692871" y="0.810242" width="52.6142" height="52.6142" rx="26.3071" fill="white"/>
<path d="M16.0386 29.8577L26.6077 35.1422C26.7515 35.2141 26.8234 35.2501 26.8988 35.2642C26.9656 35.2767 27.0341 35.2767 27.1009 35.2642C27.1763 35.2501 27.2482 35.2141 27.392 35.1422L37.9611 29.8577M16.0386 24.377L26.6077 19.0925C26.7515 19.0206 26.8234 18.9846 26.8988 18.9705C26.9656 18.9579 27.0341 18.9579 27.1009 18.9705C27.1763 18.9846 27.2482 19.0206 27.392 19.0925L37.9611 24.377L27.392 29.6616C27.2482 29.7335 27.1763 29.7694 27.1009 29.7836C27.0341 29.7961 26.9656 29.7961 26.8988 29.7836C26.8234 29.7694 26.7515 29.7335 26.6077 29.6616L16.0386 24.377Z" stroke="#080808" stroke-width="2.19226" stroke-linecap="round" stroke-linejoin="round"/>
</svg>
