<svg width="300" height="243" viewBox="0 0 300 243" fill="none" xmlns="http://www.w3.org/2000/svg">
<g clip-path="url(#clip0_6_254)">
<path fill-rule="evenodd" clip-rule="evenodd" d="M236.981 71.778C270.559 29.2889 255.181 -7.17877 214.246 49.9632L236.981 71.778Z" fill="url(#paint0_linear_6_254)"/>
<path fill-rule="evenodd" clip-rule="evenodd" d="M236.311 70.492C305.401 67.6742 308.131 95.3982 241.79 101.505L236.311 70.492Z" fill="url(#paint1_linear_6_254)"/>
<path fill-rule="evenodd" clip-rule="evenodd" d="M71.3281 161.948C79.7099 157.483 86.0165 152.952 85.4394 151.862C84.8513 150.754 77.5754 153.499 69.2233 157.971C63.3605 161.104 25.809 181.472 23.6193 183.438C23.7044 183.79 23.6859 183.801 23.9374 184.053C26.7967 183.374 65.4838 165.069 71.3281 161.948Z" fill="#D3D2CC"/>
<path fill-rule="evenodd" clip-rule="evenodd" d="M80.8236 166.561C134.114 137.272 186.365 106.037 237.558 72.8678L235.693 69.3763C179.625 93.4797 124.614 119.518 70.6434 147.502L80.8236 166.561Z" fill="url(#paint2_linear_6_254)"/>
<path fill-rule="evenodd" clip-rule="evenodd" d="M80.8236 166.561C134.114 137.272 186.365 106.037 237.558 72.8678L235.693 69.3763C179.625 93.4797 124.614 119.518 70.6434 147.502L80.8236 166.561Z" fill="url(#paint3_linear_6_254)"/>
<path fill-rule="evenodd" clip-rule="evenodd" d="M80.8236 166.561L117.546 145.983C108.776 147.281 103.264 136.229 109.401 127.847L70.636 147.532C62.1877 155.536 70.8734 168.993 80.8236 166.561Z" fill="url(#paint4_linear_6_254)"/>
<path d="M75.3523 151.003C75.5114 152.443 75.8998 153.848 76.4473 155.182C76.636 155.623 76.832 156.034 77.0577 156.453C78.5411 159.266 80.8678 161.599 83.7789 162.853C84.5299 163.184 85.3029 163.426 86.1093 163.598L84.6631 164.413C84.197 164.264 83.7494 164.104 83.3092 163.914C80.1465 162.535 77.6311 160.012 76.0257 156.995C75.641 156.269 75.3228 155.527 75.0306 154.746C74.5608 153.415 74.2611 152.034 74.1427 150.619C74.0428 149.445 74.076 148.242 74.2573 147.076C74.3423 146.546 74.4459 146.006 74.5975 145.462L76.0401 144.724C75.7257 145.542 75.5297 146.389 75.3817 147.233C75.2375 148.503 75.208 149.755 75.3523 151.003Z" fill="url(#paint5_linear_6_254)"/>
<path d="M70.8727 149.606C70.8617 149.713 70.8321 149.832 70.821 149.939C70.6583 151.094 70.6324 152.268 70.7582 153.401C70.9543 155.323 71.5351 157.216 72.4488 158.91C73.8878 161.649 76.1628 163.938 79.0147 165.176C79.8766 165.567 80.7977 165.846 81.7594 166.026L80.8125 166.542C80.4796 166.616 80.1651 166.678 79.8692 166.729C79.4142 166.599 78.9852 166.428 78.5635 166.227C75.4896 164.87 73.0075 162.403 71.4649 159.449C70.4032 157.466 69.7595 155.258 69.5967 153.014C69.5227 151.925 69.5449 150.829 69.7224 149.741C69.7483 149.574 69.7742 149.407 69.8 149.241C69.8777 148.867 69.9554 148.493 70.0626 148.127C70.2587 147.909 70.4658 147.709 70.6729 147.51L71.631 147.012C71.2907 147.87 71.0281 148.732 70.8727 149.606Z" fill="url(#paint6_linear_6_254)"/>
<path d="M81.0932 152.828C81.2596 153.232 81.4557 153.643 81.6592 154.025C82.3731 155.385 83.2905 156.624 84.3595 157.696C85.5654 158.913 86.9748 159.882 88.5358 160.558C89.1461 160.822 89.8008 161.035 90.4815 161.206L89.0796 161.97C88.7615 161.859 88.4322 161.728 88.103 161.598C85.7911 160.59 83.801 158.987 82.2659 157.011C81.674 156.232 81.1265 155.401 80.6641 154.545C80.2905 153.837 79.965 153.126 79.6949 152.381C78.7738 149.835 78.4556 147.08 78.8698 144.415C78.9253 144.004 79.0288 143.589 79.1139 143.186L80.5195 142.47C80.2828 143.166 80.1052 143.877 79.9869 144.602C79.569 147.345 79.9945 150.238 81.0932 152.828Z" fill="url(#paint7_linear_6_254)"/>
<path d="M84.5883 141.922C84.0558 145.187 84.7254 148.614 86.2865 151.556C87.0226 152.954 87.9622 154.229 89.072 155.327C90.3075 156.552 91.739 157.558 93.3481 158.231C93.8474 158.436 94.3653 158.629 94.898 158.763L93.5257 159.535C93.3259 159.453 93.1077 159.382 92.8968 159.282C90.5479 158.296 88.5356 156.656 86.9598 154.653C86.3273 153.849 85.7687 153 85.2915 152.077C83.6268 148.919 82.898 145.226 83.4897 141.724C83.5452 141.439 83.6007 141.154 83.6562 140.869L85.0248 140.176C84.8177 140.753 84.6882 141.334 84.5883 141.922Z" fill="url(#paint8_linear_6_254)"/>
<path fill-rule="evenodd" clip-rule="evenodd" d="M172.238 105.985L238.212 70.3104C257.779 139.244 221.744 172.931 172.238 105.985Z" fill="url(#paint9_linear_6_254)"/>
<path fill-rule="evenodd" clip-rule="evenodd" d="M172.238 105.985L238.212 70.3104C191.792 15.6928 144.131 27.6114 172.238 105.985Z" fill="url(#paint10_linear_6_254)"/>
</g>
<defs>
<linearGradient id="paint0_linear_6_254" x1="246.588" y1="108.818" x2="237.044" y2="52.2853" gradientUnits="userSpaceOnUse">
<stop stop-color="#FF0000"/>
<stop offset="1" stop-color="#8A0000"/>
</linearGradient>
<linearGradient id="paint1_linear_6_254" x1="285.296" y1="83.0303" x2="226.491" y2="86.9137" gradientUnits="userSpaceOnUse">
<stop stop-color="#FF0000"/>
<stop offset="1" stop-color="#8A0000"/>
</linearGradient>
<linearGradient id="paint2_linear_6_254" x1="156.865" y1="115.407" x2="142.845" y2="89.7121" gradientUnits="userSpaceOnUse">
<stop stop-color="#800000"/>
<stop offset="0.33" stop-color="#EC0000"/>
<stop offset="1" stop-color="#8A0000"/>
</linearGradient>
<linearGradient id="paint3_linear_6_254" x1="156.865" y1="115.407" x2="142.845" y2="89.7121" gradientUnits="userSpaceOnUse">
<stop stop-color="#800000"/>
<stop offset="0.33" stop-color="#EC0000"/>
<stop offset="1" stop-color="#8A0000"/>
</linearGradient>
<linearGradient id="paint4_linear_6_254" x1="96.0346" y1="156.559" x2="84.9205" y2="137.011" gradientUnits="userSpaceOnUse">
<stop stop-color="#D69241"/>
<stop offset="0.33" stop-color="#F8D89D"/>
<stop offset="1" stop-color="#B06F2B"/>
</linearGradient>
<linearGradient id="paint5_linear_6_254" x1="78.6822" y1="155.666" x2="60.9734" y2="123.316" gradientUnits="userSpaceOnUse">
<stop stop-color="#D69241"/>
<stop offset="0.33" stop-color="#F8D89D"/>
<stop offset="1" stop-color="#B06F2B"/>
</linearGradient>
<linearGradient id="paint6_linear_6_254" x1="74.2008" y1="158.119" x2="56.4888" y2="125.763" gradientUnits="userSpaceOnUse">
<stop stop-color="#D69241"/>
<stop offset="0.33" stop-color="#F8D89D"/>
<stop offset="1" stop-color="#B06F2B"/>
</linearGradient>
<linearGradient id="paint7_linear_6_254" x1="83.1695" y1="153.208" x2="65.4601" y2="120.858" gradientUnits="userSpaceOnUse">
<stop stop-color="#D69241"/>
<stop offset="0.33" stop-color="#F8D89D"/>
<stop offset="1" stop-color="#B06F2B"/>
</linearGradient>
<linearGradient id="paint8_linear_6_254" x1="87.6639" y1="150.748" x2="69.9547" y2="118.398" gradientUnits="userSpaceOnUse">
<stop stop-color="#D69241"/>
<stop offset="0.33" stop-color="#F8D89D"/>
<stop offset="1" stop-color="#B06F2B"/>
</linearGradient>
<linearGradient id="paint9_linear_6_254" x1="226.369" y1="138.827" x2="204.807" y2="87.0428" gradientUnits="userSpaceOnUse">
<stop stop-color="#FF0000"/>
<stop offset="1" stop-color="#8A0000"/>
</linearGradient>
<linearGradient id="paint10_linear_6_254" x1="204.626" y1="87.0825" x2="177.858" y2="40.0022" gradientUnits="userSpaceOnUse">
<stop stop-color="#FF0000"/>
<stop offset="1" stop-color="#8A0000"/>
</linearGradient>
<clipPath id="clip0_6_254">
<rect width="280.706" height="114.388" fill="white" transform="translate(299.598 98.1409) rotate(149.089)"/>
</clipPath>
</defs>
</svg>
