<svg width="51" height="41" viewBox="0 0 51 41" fill="none" xmlns="http://www.w3.org/2000/svg">
<path d="M4.28267 3.64608L3.80058 4.07923L4.3419 4.43562L25.2251 18.1843L25.5 18.3653L25.7749 18.1843L46.6581 4.43562L47.1994 4.07923L46.7173 3.64608C45.7109 2.74181 44.4101 2.23333 42.9474 2.23333H8.05263C6.58988 2.23333 5.28908 2.74181 4.28267 3.64608ZM3.30876 5.81481L2.77672 5.46334L2.56228 6.06385C2.33032 6.71343 2.18421 7.45358 2.18421 8.2V32.8C2.18421 34.3796 2.80033 35.8962 3.89984 37.0159C4.99965 38.1358 6.49327 38.7667 8.05263 38.7667H42.9474C44.5067 38.7667 46.0003 38.1358 47.1002 37.0159C48.1997 35.8962 48.8158 34.3796 48.8158 32.8V8.2C48.8158 7.45359 48.6697 6.71343 48.4377 6.06385L48.2233 5.46334L47.6912 5.81481L25.5 20.4747L3.30876 5.81481ZM8.05263 0.5H42.9474C44.9475 0.5 46.8676 1.309 48.2847 2.75206C49.7021 4.19542 50.5 6.15494 50.5 8.2V32.8C50.5 34.8451 49.7021 36.8046 48.2847 38.2479C46.8676 39.691 44.9475 40.5 42.9474 40.5H8.05263C6.05251 40.5 4.13243 39.691 2.71531 38.2479C1.29788 36.8046 0.5 34.8451 0.5 32.8V8.2C0.5 6.15494 1.29788 4.19542 2.71531 2.75206C4.13243 1.309 6.05251 0.5 8.05263 0.5Z" fill="white" stroke="#FCFCFC"/>
</svg>
