<svg width="53" height="54" viewBox="0 0 53 54" fill="none" xmlns="http://www.w3.org/2000/svg">
<rect x="0.149414" y="0.810242" width="52.6142" height="52.6142" rx="26.3071" fill="#8224E3"/>
<path d="M15.4951 27.1173L26.0642 32.4019C26.208 32.4737 26.2799 32.5097 26.3553 32.5238C26.4221 32.5364 26.4907 32.5364 26.5575 32.5238C26.6329 32.5097 26.7048 32.4737 26.8486 32.4019L37.4177 27.1173M15.4951 32.5979L26.0642 37.8825C26.208 37.9544 26.2799 37.9903 26.3553 38.0045C26.4221 38.017 26.4907 38.017 26.5575 38.0045C26.6329 37.9903 26.7048 37.9544 26.8486 37.8825L37.4177 32.5979M15.4951 21.6367L26.0642 16.3521C26.208 16.2802 26.2799 16.2442 26.3553 16.2301C26.4221 16.2176 26.4907 16.2176 26.5575 16.2301C26.6329 16.2442 26.7048 16.2802 26.8486 16.3521L37.4177 21.6367L26.8486 26.9212C26.7048 26.9931 26.6329 27.0291 26.5575 27.0432C26.4907 27.0557 26.4221 27.0557 26.3553 27.0432C26.2799 27.0291 26.208 26.9931 26.0642 26.9212L15.4951 21.6367Z" stroke="white" stroke-width="2.19226" stroke-linecap="round" stroke-linejoin="round"/>
</svg>
