<svg width="53" height="73" viewBox="0 0 53 73" fill="none" xmlns="http://www.w3.org/2000/svg">
<path fill-rule="evenodd" clip-rule="evenodd" d="M0 9.9375C0 7.30191 1.04698 4.77427 2.91063 2.91063C4.77427 1.04698 7.30191 0 9.9375 0H43.0625C45.6981 0 48.2257 1.04698 50.0894 2.91063C51.953 4.77427 53 7.30191 53 9.9375V62.9375C52.9996 63.5614 52.823 64.1725 52.4906 64.7005C52.1582 65.2284 51.6834 65.6517 51.1209 65.9217C50.5585 66.1917 49.9312 66.2974 49.3113 66.2265C48.6915 66.1557 48.1042 65.9112 47.6172 65.5213L41.4062 60.5525L35.1953 65.5213C34.559 66.031 33.7571 66.2882 32.943 66.2436C32.1289 66.199 31.3598 65.8557 30.7831 65.2794L26.5 60.9964L22.2169 65.2794C21.6406 65.8562 20.8718 66.2 20.0577 66.2453C19.2436 66.2905 18.4414 66.0339 17.8047 65.5246L11.5938 60.5525L5.38281 65.5213C4.89578 65.9112 4.30853 66.1557 3.68867 66.2265C3.06881 66.2974 2.44154 66.1917 1.87908 65.9217C1.31662 65.6517 0.841841 65.2284 0.509404 64.7005C0.176968 64.1725 0.000389683 63.5614 0 62.9375V9.9375ZM9.9375 6.625C9.05897 6.625 8.21642 6.974 7.59521 7.59521C6.974 8.21642 6.625 9.05897 6.625 9.9375V56.0475L9.52344 53.7287C10.1109 53.2584 10.8411 53.0021 11.5938 53.0021C12.3464 53.0021 13.0766 53.2584 13.6641 53.7287L19.6266 58.4987L24.1581 53.9706C24.7792 53.3496 25.6216 53.0007 26.5 53.0007C27.3784 53.0007 28.2208 53.3496 28.8419 53.9706L33.3701 58.4987L39.3359 53.7287C39.9235 53.2584 40.6536 53.0021 41.4062 53.0021C42.1589 53.0021 42.889 53.2584 43.4766 53.7287L46.375 56.0475V9.9375C46.375 9.05897 46.026 8.21642 45.4048 7.59521C44.7836 6.974 43.941 6.625 43.0625 6.625H9.9375ZM13.25 23.1875C13.25 22.309 13.599 21.4664 14.2202 20.8452C14.8414 20.224 15.684 19.875 16.5625 19.875H36.4375C37.316 19.875 38.1586 20.224 38.7798 20.8452C39.401 21.4664 39.75 22.309 39.75 23.1875C39.75 24.066 39.401 24.9086 38.7798 25.5298C38.1586 26.151 37.316 26.5 36.4375 26.5H16.5625C15.684 26.5 14.8414 26.151 14.2202 25.5298C13.599 24.9086 13.25 24.066 13.25 23.1875ZM16.5625 33.125C15.684 33.125 14.8414 33.474 14.2202 34.0952C13.599 34.7164 13.25 35.559 13.25 36.4375C13.25 37.316 13.599 38.1586 14.2202 38.7798C14.8414 39.401 15.684 39.75 16.5625 39.75H26.5C27.3785 39.75 28.2211 39.401 28.8423 38.7798C29.4635 38.1586 29.8125 37.316 29.8125 36.4375C29.8125 35.559 29.4635 34.7164 28.8423 34.0952C28.2211 33.474 27.3785 33.125 26.5 33.125H16.5625Z" fill="white"/>
</svg>
