<svg width="939" height="730" viewBox="0 0 939 730" fill="none" xmlns="http://www.w3.org/2000/svg">
<g opacity="0.3" clip-path="url(#clip0_3_54)">
<path opacity="0.61" fill-rule="evenodd" clip-rule="evenodd" d="M480.101 332.925C480.101 332.745 480.101 332.565 480.101 332.402L938.981 326.12C936.735 288.673 938.651 307.372 933.211 270.007L479.965 331.027C479.926 330.864 479.888 330.684 479.849 330.504C479.791 330.324 479.752 330.16 479.694 329.997L922.349 227.44C908.989 191.335 916.424 209.134 900.082 174.027L479.171 328.704C479.074 328.524 478.997 328.377 478.92 328.23C478.823 328.083 478.726 327.919 478.61 327.772L877.003 135.173C853.555 103.24 865.947 118.83 839.886 88.4015L477.719 326.627C477.584 326.496 477.448 326.349 477.293 326.218C477.158 326.087 477.022 325.956 476.867 325.825L806.293 55.7319C774.287 29.7532 790.803 42.2518 756.687 18.2198L475.667 324.909C475.493 324.811 475.338 324.713 475.163 324.598C474.989 324.5 474.815 324.402 474.641 324.304L714.459 -6.45008C675.58 -25.0343 695.368 -16.3475 655.095 -32.5106L473.208 323.682C472.995 323.617 472.821 323.551 472.627 323.486C472.433 323.42 472.24 323.355 472.027 323.306L606.593 -47.6266C563.474 -57.3932 585.178 -53.1725 541.401 -60.3051L470.458 322.995C470.265 322.962 470.071 322.93 469.839 322.913C469.645 322.897 469.432 322.897 469.239 322.88L490.421 -64.6731C445.907 -65.0984 468.154 -65.5565 423.893 -63.348L467.593 322.913C467.38 322.93 467.186 322.946 466.954 322.979C466.741 323.011 466.567 323.044 466.354 323.077L372.816 -56.837C329.425 -47.8557 350.937 -53.0089 308.34 -41.4264L464.785 323.453C464.592 323.518 464.398 323.568 464.204 323.649C464.011 323.698 463.817 323.797 463.624 323.862L260.903 -24.3636C221.695 -6.58096 240.902 -16.053 203.301 4.01991L462.23 324.565C462.055 324.68 461.9 324.778 461.726 324.876C461.571 324.991 461.397 325.105 461.242 325.203L162.583 30.3421C129.9 55.6992 145.699 42.5462 115.204 69.801L460.08 326.185C459.945 326.316 459.809 326.447 459.674 326.594C459.558 326.725 459.422 326.872 459.286 327.019L83.4116 103.861C59.0929 135.386 70.5745 119.272 48.9278 152.252L458.493 328.181C458.396 328.328 458.299 328.492 458.222 328.655C458.144 328.819 458.047 328.982 457.97 329.146L28.0943 192.104C13.8245 227.882 20.1946 209.821 8.96459 246.368L457.486 330.471C457.447 330.651 457.408 330.831 457.37 330.995C457.331 331.175 457.312 331.338 457.292 331.518L0.638925 289.131C-2.63326 326.643 7.72543 307.584 7.57053 345.211L457.234 332.892C457.234 333.072 457.253 333.252 457.273 333.416C457.292 333.596 457.312 333.776 457.35 333.956L2.47832 388.612C10.3393 425.797 5.63433 407.377 16.6126 443.956L457.679 335.281C457.738 335.444 457.815 335.608 457.873 335.788C457.951 335.935 458.028 336.099 458.105 336.279L33.748 485.067C52.3742 519.373 42.3641 502.523 63.7397 535.536L458.822 337.489C458.938 337.637 459.074 337.8 459.17 337.931C459.306 338.078 459.422 338.226 459.538 338.356L92.3375 571.576C120.257 600.712 105.697 586.577 135.979 613.979L460.603 339.403C460.739 339.518 460.913 339.649 461.068 339.763C461.223 339.878 461.378 339.992 461.532 340.107L174.161 642.87C209.826 665.331 191.568 654.665 229.014 674.934L462.849 340.876C463.023 340.974 463.217 341.039 463.411 341.137C463.585 341.219 463.779 341.285 463.972 341.367L274.766 695.007C316.201 709.322 295.213 702.794 337.654 714.573L465.502 341.857C465.715 341.923 465.889 341.955 466.102 341.988C466.315 342.021 466.528 342.054 466.741 342.086L387.996 724.356C431.889 729.427 409.817 727.546 454.194 730L468.367 342.217C468.561 342.217 468.793 342.217 468.968 342.217C469.2 342.217 469.393 342.201 469.606 342.184L505.445 728.953C549.765 724.683 527.712 727.48 571.606 720.544L471.214 341.988C471.426 341.939 471.62 341.906 471.814 341.857C472.007 341.808 472.201 341.759 472.414 341.71L621.308 708.667C662.956 695.187 642.413 702.549 682.879 686.566L473.885 341.17C474.06 341.088 474.253 341.007 474.428 340.925C474.602 340.827 474.776 340.745 474.95 340.663L727.218 664.709C763.425 642.984 745.806 654.37 780.076 630.551L476.248 339.796C476.403 339.698 476.557 339.567 476.693 339.452C476.848 339.305 477.003 339.191 477.158 339.076L816.555 600.155C845.288 571.51 831.541 586.25 857.815 555.936L478.126 337.996C478.242 337.849 478.358 337.702 478.474 337.555C478.571 337.408 478.668 337.244 478.784 337.097L884.38 518.653C903.877 484.707 894.835 501.966 911.448 466.843L479.442 335.837C479.5 335.673 479.578 335.51 479.655 335.33C479.694 335.166 479.772 335.003 479.81 334.823L926.163 425.127C934.973 388.22 931.371 406.739 937.025 369.554L480.081 333.481C480.081 333.301 480.101 333.121 480.101 332.925Z" fill="url(#paint0_radial_3_54)"/>
</g>
<defs>
<radialGradient id="paint0_radial_3_54" cx="0" cy="0" r="1" gradientUnits="userSpaceOnUse" gradientTransform="translate(476.709 270.964) scale(417.899 353.092)">
<stop stop-color="white"/>
<stop offset="1" stop-color="white" stop-opacity="0"/>
</radialGradient>
<clipPath id="clip0_3_54">
<rect width="939" height="795" fill="white" transform="translate(0 -65)"/>
</clipPath>
</defs>
</svg>
